<?xml version="1.0" standalone="no"?>
<!DOCTYPE svg PUBLIC "-//W3C//DTD SVG 20010904//EN"
 "http://www.w3.org/TR/2001/REC-SVG-20010904/DTD/svg10.dtd">
<svg version="1.0" xmlns="http://www.w3.org/2000/svg"
 width="500.000000pt" height="500.000000pt" viewBox="0 0 500.000000 500.000000"
 preserveAspectRatio="xMidYMid meet">

<g transform="translate(0.000000,500.000000) scale(0.100000,-0.100000)"
fill="#000000" stroke="none">
<path d="M130 3690 l0 -29 153 -3 152 -3 3 -457 2 -458 30 0 30 0 2 414 3 415
145 -415 144 -414 198 0 c109 0 198 3 198 8 -1 4 -78 223 -173 487 l-172 480
-358 3 -357 2 0 -30z"/>
<path d="M2246 3712 c-5 -8 -336 -963 -336 -969 0 -2 15 -3 34 -3 l33 0 143
413 c78 226 146 419 151 427 5 8 9 -177 9 -412 l0 -428 185 0 185 0 0 455 0
455 125 0 125 0 0 -455 0 -455 185 0 185 0 0 461 0 461 258 -5 c234 -5 266 -7
355 -31 130 -33 214 -82 307 -175 85 -86 142 -184 191 -328 31 -93 69 -281 69
-345 l0 -38 200 0 c184 0 200 1 200 18 0 42 -56 216 -101 310 -160 340 -444
555 -838 633 -70 14 -1656 25 -1665 11z"/>
<path d="M350 2415 c0 -105 0 -105 25 -105 22 0 24 4 27 58 l3 57 28 -48 c16
-27 34 -46 40 -44 7 2 23 23 37 48 l25 44 3 -57 c3 -54 5 -58 27 -58 25 0 25
0 25 106 0 103 -1 105 -22 102 -14 -2 -33 -22 -55 -58 -18 -30 -36 -56 -41
-58 -4 -1 -23 25 -42 58 -26 45 -41 60 -57 60 -22 0 -23 -3 -23 -105z"/>
<path d="M740 2415 l0 -105 25 0 25 0 0 105 0 105 -25 0 -25 0 0 -105z"/>
<path d="M941 2415 l1 -105 65 0 c79 0 120 19 139 67 12 28 13 42 3 70 -17 51
-59 73 -142 73 l-68 0 2 -105z m148 39 c12 -15 21 -32 21 -39 0 -7 -9 -24 -21
-39 -16 -20 -29 -26 -60 -26 l-39 0 0 65 0 65 39 0 c31 0 44 -6 60 -26z"/>
<path d="M1300 2415 l0 -105 25 0 c24 0 25 3 25 61 l0 61 51 -61 c30 -36 59
-61 70 -61 17 0 19 8 19 105 0 105 0 105 -25 105 -22 0 -24 -4 -27 -60 l-3
-60 -48 60 c-29 35 -57 60 -68 60 -17 0 -19 -8 -19 -105z"/>
<path d="M1640 2415 l0 -105 25 0 25 0 0 105 0 105 -25 0 -25 0 0 -105z"/>
<path d="M1868 2491 c-28 -25 -33 -36 -33 -76 0 -40 5 -51 33 -76 26 -23 42
-29 78 -29 68 0 84 12 84 65 0 38 -3 45 -19 45 -15 0 -21 -8 -23 -32 -3 -29
-7 -33 -35 -36 -62 -6 -96 65 -53 108 21 21 65 26 90 10 14 -9 40 4 40 20 0
13 -51 30 -90 30 -30 0 -48 -7 -72 -29z"/>
<path d="M2180 2415 l0 -105 25 0 c23 0 25 4 25 45 l0 45 45 0 45 0 0 -45 c0
-41 2 -45 25 -45 l25 0 0 105 0 105 -25 0 c-22 0 -25 -4 -25 -40 l0 -40 -45 0
-45 0 0 40 c0 36 -2 40 -25 40 l-25 0 0 -105z"/>
<path d="M2500 2500 c0 -16 7 -20 35 -20 l35 0 0 -85 c0 -84 0 -85 25 -85 25
0 25 1 25 85 l0 85 35 0 c28 0 35 4 35 20 0 19 -7 20 -95 20 -88 0 -95 -1 -95
-20z"/>
<path d="M3001 2415 l1 -105 65 0 c79 0 120 19 139 67 12 28 13 42 3 70 -17
51 -59 73 -142 73 l-68 0 2 -105z m152 34 c34 -47 1 -99 -64 -99 l-39 0 0 66
0 65 42 -3 c31 -2 46 -10 61 -29z"/>
<path d="M3360 2415 l0 -105 25 0 25 0 0 105 0 105 -25 0 -25 0 0 -105z"/>
<path d="M3560 2415 c0 -105 0 -105 25 -105 22 0 24 4 27 60 l3 60 48 -60 c29
-35 57 -60 68 -60 17 0 19 8 19 105 l0 105 -25 0 c-24 0 -25 -3 -25 -61 l0
-61 -51 61 c-30 36 -59 61 -70 61 -17 0 -19 -8 -19 -105z"/>
<path d="M3901 2415 c1 -103 2 -105 25 -105 21 0 23 5 26 62 l3 62 50 -61 c34
-42 57 -62 73 -62 21 -1 22 2 22 104 0 105 0 105 -25 105 -23 0 -24 -4 -27
-62 l-3 -63 -49 63 c-36 45 -55 62 -73 62 -24 0 -24 0 -22 -105z"/>
<path d="M4250 2415 l0 -105 84 0 c75 0 84 2 82 18 -2 13 -15 18 -59 20 -53 3
-57 5 -57 27 0 23 4 25 51 25 43 0 50 3 47 18 -2 13 -15 18 -51 20 -39 3 -47
6 -47 23 0 16 7 19 55 19 48 0 55 2 55 20 0 18 -7 20 -80 20 l-80 0 0 -105z"/>
<path d="M4560 2416 l0 -106 25 0 c21 0 25 5 25 30 0 40 27 40 61 -1 17 -22
32 -30 48 -27 l23 3 -22 28 -21 27 20 26 c26 33 27 65 2 95 -16 19 -30 24 -90
27 l-71 4 0 -106z m123 43 c17 -28 1 -49 -38 -49 -33 0 -35 2 -35 36 0 34 1
35 31 32 18 -2 37 -10 42 -19z"/>
<path d="M438 1623 l-3 -448 -153 0 -152 0 0 -32 0 -33 340 0 340 0 0 30 0 30
-155 0 -155 0 0 450 0 450 -30 0 -30 0 -2 -447z"/>
<path d="M1033 2058 c2 -7 78 -224 167 -481 160 -457 164 -468 189 -465 23 3
34 30 188 473 89 259 163 473 163 478 0 4 -15 7 -32 7 l-33 0 -48 -143 c-78
-228 -63 -225 -132 -28 l-60 171 -204 0 c-158 0 -202 -3 -198 -12z"/>
<path d="M2278 1623 l-3 -448 -153 0 -152 0 0 -32 0 -33 495 0 c480 0 495 1
495 19 0 18 16 19 443 24 531 6 583 13 792 104 232 102 409 275 532 517 42 83
103 251 103 282 0 12 -31 14 -192 12 l-191 -3 -19 -108 c-34 -204 -113 -398
-206 -509 -91 -108 -192 -172 -328 -210 -69 -19 -112 -22 -351 -26 l-273 -4 0
431 0 431 -185 0 -185 0 -2 -427 -3 -428 -120 0 -120 0 -3 428 -2 427 -185 0
-185 0 -2 -447z"/>
</g>
</svg>
